<?xml version="1.0" encoding="UTF-8" standalone="no"?>
<!DOCTYPE svg PUBLIC "-//W3C//DTD SVG 1.1//EN" "http://www.w3.org/Graphics/SVG/1.1/DTD/svg11.dtd">
<svg xmlns="http://www.w3.org/2000/svg" version="1.1" width="1448" height="1448" viewBox="0.00 0.00 1448.00 1448.00">
<path fill="#e2281a" d="
  M 691.87 686.66
  Q 690.71 684.39 690.66 680.00
  Q 690.45 662.96 690.33 646.00
  Q 690.32 643.40 688.45 639.49
  C 686.90 636.22 687.13 634.82 688.98 631.89
  Q 689.83 630.54 689.47 629.06
  C 688.63 625.59 686.46 620.19 685.25 615.96
  Q 680.76 600.35 674.93 583.50
  C 673.40 579.07 672.91 573.95 669.70 570.29
  Q 658.49 557.50 620.41 516.57
  C 615.74 511.55 611.20 505.43 605.91 499.18
  Q 586.90 476.73 572.93 453.13
  Q 569.21 446.83 561.14 428.96
  Q 553.85 412.80 550.66 391.91
  Q 548.12 375.23 550.82 355.36
  Q 553.08 338.81 561.38 320.44
  C 569.86 301.67 581.18 286.48 594.82 271.60
  Q 615.15 249.45 643.43 235.47
  Q 654.88 229.82 662.81 227.88
  Q 667.36 226.77 676.12 224.18
  Q 683.25 222.07 697.74 219.28
  Q 711.52 216.63 731.05 217.03
  C 736.68 217.15 742.40 218.53 748.50 218.55
  A 11.94 11.55 50.2 0 1 751.00 218.82
  Q 757.13 220.13 760.38 220.72
  C 767.83 222.10 773.72 224.40 780.69 226.35
  Q 784.74 227.48 791.51 230.17
  Q 821.64 242.15 845.07 264.42
  Q 854.35 273.24 864.37 285.13
  Q 873.50 295.94 879.90 308.58
  C 886.03 320.69 890.41 330.41 893.79 342.68
  C 898.02 358.05 898.82 374.54 897.30 389.92
  C 895.56 407.57 889.59 425.34 881.53 441.30
  Q 878.69 446.93 877.65 449.04
  C 875.32 453.73 872.66 456.83 870.21 461.25
  Q 866.13 468.59 861.38 474.88
  C 853.38 485.47 848.04 492.99 840.08 502.01
  C 836.09 506.52 832.25 512.02 827.18 517.59
  Q 806.09 540.77 792.91 554.47
  C 788.92 558.62 784.82 563.74 780.26 568.48
  Q 776.93 571.94 775.50 577.49
  C 773.72 584.34 771.61 590.73 769.00 599.49
  Q 768.13 602.38 765.57 609.06
  C 763.12 615.46 761.84 622.76 759.22 628.98
  A 1.42 1.40 -44.7 0 0 759.21 630.04
  C 760.46 633.16 762.24 635.02 760.67 638.68
  Q 759.46 641.49 758.91 643.47
  A 7.71 7.57 53.9 0 0 758.63 645.37
  Q 758.52 654.53 758.42 678.75
  C 758.39 685.55 757.32 689.10 749.75 689.01
  C 741.89 688.91 731.48 688.47 722.08 688.73
  Q 705.89 689.18 698.77 689.04
  Q 695.68 688.98 692.63 687.43
  A 1.72 1.70 0.7 0 1 691.87 686.66
  Z
  M 724.09 220.76
  Q 726.58 225.51 728.70 231.78
  Q 734.98 250.33 737.55 265.44
  C 740.10 280.42 742.29 293.84 743.69 307.68
  Q 745.44 324.83 745.59 327.53
  C 747.62 363.80 746.65 394.99 745.74 437.12
  Q 745.55 445.97 744.76 455.35
  Q 743.29 473.08 743.28 473.58
  Q 743.13 480.14 742.02 487.77
  Q 741.56 490.91 740.60 501.98
  C 739.65 512.87 738.40 522.13 737.74 532.05
  C 737.31 538.50 735.76 545.89 735.31 550.85
  Q 734.98 554.45 733.58 561.34
  Q 732.99 564.24 732.10 571.92
  A 0.95 0.94 3.2 0 0 733.05 572.97
  L 744.31 572.90
  A 0.65 0.65 0.0 0 0 744.86 572.57
  Q 746.66 569.87 758.09 530.87
  Q 766.49 502.21 769.16 489.49
  C 771.21 479.69 774.18 468.22 775.80 458.32
  Q 778.74 440.29 780.39 431.13
  C 781.35 425.75 781.78 419.73 782.96 411.95
  C 784.26 403.30 784.15 394.19 784.71 386.41
  Q 785.22 379.46 785.21 375.07
  Q 785.13 350.21 784.03 335.93
  Q 783.72 331.88 781.09 315.20
  Q 780.26 309.92 778.98 304.95
  C 776.68 296.03 775.63 290.67 772.92 283.10
  Q 770.13 275.28 768.68 271.60
  Q 762.41 255.59 752.48 242.29
  Q 744.64 231.78 734.15 223.06
  Q 728.55 218.41 726.64 217.84
  Q 722.67 216.66 717.98 220.04
  Q 709.69 226.00 703.28 232.78
  Q 700.98 235.22 693.93 244.94
  Q 689.56 250.96 686.17 257.91
  Q 679.99 270.55 679.56 271.55
  Q 678.91 273.04 675.14 283.39
  Q 672.98 289.33 671.66 295.52
  C 670.53 300.83 667.41 311.03 666.64 318.91
  Q 666.44 321.03 665.27 328.74
  Q 664.33 334.96 664.10 343.53
  Q 663.25 374.11 664.97 401.07
  Q 665.23 405.15 665.56 407.42
  C 666.41 413.13 666.56 417.66 667.40 423.24
  Q 668.66 431.64 671.46 449.29
  C 672.99 458.89 674.46 464.40 676.60 474.93
  Q 678.24 482.99 681.07 494.68
  Q 684.45 508.65 686.25 514.38
  Q 686.79 516.08 687.44 518.17
  Q 689.66 525.24 691.65 532.50
  C 695.34 546.00 700.53 562.41 703.06 570.83
  A 3.04 3.04 0.0 0 0 705.97 573.00
  L 714.98 573.00
  A 0.98 0.97 -88.8 0 0 715.95 572.06
  C 716.26 564.27 713.36 552.97 712.40 544.49
  Q 707.82 504.04 707.82 504.00
  Q 706.69 494.24 703.56 446.51
  C 703.19 440.73 702.62 435.40 702.53 430.83
  C 702.21 415.03 701.25 398.18 701.16 383.04
  Q 701.06 366.38 702.27 338.60
  Q 702.63 330.34 703.23 325.43
  C 704.50 314.98 704.96 306.48 706.48 294.42
  Q 708.00 282.41 708.87 276.59
  Q 712.79 250.20 721.49 225.23
  Q 722.37 222.70 723.48 220.75
  A 0.35 0.35 0.0 0 1 724.09 220.76
  Z
  M 761.44 573.55
  L 767.63 573.55
  A 2.04 2.04 0.0 0 0 769.28 572.71
  C 777.41 561.50 784.47 553.03 792.65 541.93
  Q 804.63 525.67 807.92 521.20
  Q 816.53 509.53 831.23 485.94
  C 837.52 475.84 844.25 463.23 847.98 455.51
  C 852.77 445.58 858.84 430.89 861.97 418.09
  Q 865.07 405.37 865.58 402.38
  Q 868.50 385.22 867.41 366.07
  C 867.12 361.12 866.53 359.65 866.39 355.07
  Q 866.31 352.10 865.05 346.02
  C 862.03 331.38 858.56 319.83 851.38 307.46
  Q 851.32 307.36 843.63 293.38
  Q 841.53 289.56 833.56 279.11
  Q 827.30 270.90 822.21 265.77
  Q 806.32 249.77 787.71 238.47
  C 783.88 236.14 779.54 234.49 775.63 232.26
  A 12.60 12.59 69.5 0 0 773.39 231.24
  Q 768.14 229.47 764.64 227.97
  Q 759.33 225.70 755.95 224.81
  Q 751.03 223.50 739.20 220.29
  A 1.01 1.01 0.0 0 0 737.92 221.31
  L 737.92 221.37
  A 2.01 2.00 10.1 0 0 739.15 223.12
  C 742.54 224.52 746.36 225.85 750.04 228.22
  Q 750.29 228.38 755.12 231.14
  C 761.63 234.87 769.15 239.53 775.02 244.71
  Q 788.72 256.82 798.90 271.13
  C 808.71 284.91 816.29 301.82 821.45 317.78
  Q 828.83 340.59 828.65 367.00
  Q 828.52 384.22 827.92 390.50
  Q 827.37 396.27 824.63 413.22
  Q 822.91 423.82 819.63 435.61
  Q 814.58 453.75 810.23 465.50
  Q 807.18 473.75 802.21 486.08
  C 795.69 502.28 790.16 512.82 781.16 531.65
  Q 777.60 539.10 767.00 558.48
  Q 762.72 566.31 760.34 571.88
  A 1.20 1.20 0.0 0 0 761.44 573.55
  Z
  M 710.33 221.50
  A 0.87 0.86 81.5 0 0 709.26 220.70
  Q 703.22 222.19 694.39 224.54
  Q 689.81 225.76 685.48 227.49
  C 679.89 229.73 675.01 230.86 669.90 233.57
  Q 667.35 234.92 663.24 236.66
  A 9.54 9.13 -72.8 0 0 661.55 237.60
  Q 658.45 239.83 651.81 244.06
  Q 644.88 248.48 631.93 259.69
  C 614.06 275.16 601.81 295.38 592.78 315.98
  Q 585.28 333.09 582.58 350.38
  Q 581.89 354.78 581.85 355.40
  C 581.57 359.86 580.72 363.86 580.54 368.08
  C 579.87 382.95 580.89 397.24 584.38 412.05
  Q 587.57 425.62 588.39 427.85
  Q 599.04 456.77 611.68 478.11
  Q 621.08 493.96 627.08 502.43
  Q 632.20 509.67 638.14 518.48
  C 640.64 522.18 643.72 525.55 646.67 529.57
  Q 654.31 539.99 662.86 550.70
  C 666.74 555.56 669.91 560.88 674.07 565.59
  C 675.62 567.34 677.00 569.81 678.39 571.57
  A 5.90 5.89 68.3 0 0 683.51 573.78
  L 686.56 573.51
  A 2.17 2.16 -16.7 0 0 688.28 570.32
  Q 672.56 541.45 662.56 520.28
  C 658.53 511.73 654.82 504.88 651.50 497.33
  Q 641.09 473.66 634.70 454.10
  Q 629.35 437.76 624.16 414.62
  C 622.67 408.02 622.14 401.63 621.16 396.10
  Q 620.17 390.51 619.76 382.05
  Q 618.64 358.57 620.68 342.84
  C 625.78 303.52 644.59 267.96 675.38 242.84
  Q 678.88 239.98 684.59 236.25
  Q 691.31 231.85 694.19 230.19
  Q 698.05 227.96 709.46 222.94
  A 1.46 1.45 76.9 0 0 710.33 221.53
  L 710.33 221.50
  Z
  M 706.65 630.91
  A 1.01 1.01 0.0 0 0 707.65 629.81
  L 703.13 577.56
  A 1.01 1.01 0.0 0 0 702.12 576.64
  L 680.20 576.64
  A 1.01 1.01 0.0 0 0 679.24 577.96
  L 695.84 630.21
  A 1.01 1.01 0.0 0 0 696.80 630.91
  L 706.65 630.91
  Z
  M 752.24 630.84
  A 0.32 0.32 0.0 0 0 752.54 630.62
  L 770.27 577.07
  A 0.32 0.32 0.0 0 0 769.97 576.65
  L 745.67 576.65
  A 0.32 0.32 0.0 0 0 745.36 576.94
  L 740.88 630.49
  A 0.32 0.32 0.0 0 0 741.20 630.84
  L 752.24 630.84
  Z
  M 734.92 630.81
  A 0.34 0.34 0.0 0 0 735.26 630.50
  L 740.24 577.18
  A 0.34 0.34 0.0 0 0 739.90 576.81
  L 708.90 576.81
  A 0.34 0.34 0.0 0 0 708.56 577.18
  L 713.18 630.50
  A 0.34 0.34 0.0 0 0 713.52 630.81
  L 734.92 630.81
  Z"
/>
<ellipse fill="#e2281a" cx="0.00" cy="0.00" transform="translate(559.35,648.22) rotate(-86.1)" rx="0.95" ry="0.30"/>
<path fill="#e2281a" d="
  M 1059.86 703.59
  Q 1015.40 756.38 953.03 786.79
  Q 951.27 787.64 934.80 794.62
  Q 924.06 799.16 916.20 801.44
  Q 895.67 807.39 883.80 809.75
  Q 882.18 810.07 867.91 812.19
  Q 860.85 813.24 851.89 813.44
  Q 817.25 814.22 809.02 813.90
  C 802.37 813.64 795.24 813.55 788.39 812.49
  C 780.20 811.22 774.14 811.04 766.93 809.43
  Q 747.54 805.09 742.51 803.73
  Q 742.50 803.73 724.97 798.73
  C 710.79 794.68 697.72 788.80 684.40 782.75
  Q 674.92 778.44 671.65 776.74
  Q 654.42 767.72 635.36 758.41
  Q 618.22 750.05 609.04 747.01
  Q 600.91 744.31 596.77 742.93
  Q 588.60 740.19 584.41 739.24
  Q 568.71 735.65 561.15 734.70
  Q 552.72 733.63 548.03 732.94
  C 538.86 731.60 533.82 731.49 523.53 730.55
  Q 518.81 730.11 512.16 730.05
  Q 488.81 729.81 482.76 730.20
  Q 473.86 730.78 451.53 733.50
  Q 432.62 735.80 420.67 739.09
  Q 402.02 744.23 390.01 749.79
  Q 373.67 757.35 358.92 766.68
  A 0.08 0.08 0.0 0 1 358.82 766.56
  Q 360.98 764.19 364.50 761.48
  Q 394.69 738.23 425.77 727.57
  Q 441.89 722.04 463.55 717.26
  C 468.10 716.25 471.49 716.18 476.01 715.42
  Q 477.48 715.17 481.02 715.05
  C 485.64 714.88 491.47 713.61 496.68 713.52
  Q 526.13 713.01 536.01 713.71
  Q 552.99 714.91 569.78 718.42
  C 572.29 718.95 575.05 719.14 577.64 719.75
  Q 602.45 725.55 613.30 729.25
  Q 637.76 737.60 655.68 746.60
  C 671.37 754.48 689.87 764.87 711.37 772.85
  Q 725.26 778.01 735.95 781.55
  Q 740.08 782.92 753.65 786.29
  Q 762.21 788.42 771.54 789.85
  Q 775.28 790.42 779.15 791.22
  Q 784.96 792.43 786.75 792.55
  C 794.35 793.05 801.18 794.04 807.44 794.40
  C 826.38 795.51 846.14 795.48 865.58 793.63
  Q 877.23 792.52 877.25 792.52
  Q 889.76 791.01 905.66 787.67
  Q 911.40 786.46 918.09 784.26
  C 923.05 782.63 928.98 781.37 934.60 779.41
  Q 960.62 770.36 978.06 761.50
  Q 1007.17 746.72 1036.76 723.55
  Q 1044.38 717.58 1049.00 713.17
  Q 1053.83 708.58 1059.68 703.41
  A 0.13 0.13 0.0 0 1 1059.86 703.59
  Z"
/>


<text x="741" y="940" 
      text-anchor="middle" 
      font-family="'Montserrat', sans-serif" 
      font-weight="bold"
      font-size="110" 
      fill="#e2281a" 
      letter-spacing="-5"> NEW CAPPADOCIA
</text>
</svg>
